<svg width="22" height="22" viewBox="0 0 22 22" fill="none" xmlns="http://www.w3.org/2000/svg">
<path d="M21.6562 11C21.6562 16.8867 16.8867 21.6562 11 21.6562C5.11328 21.6562 0.34375 16.8867 0.34375 11C0.34375 5.11328 5.11328 0.34375 11 0.34375C16.8867 0.34375 21.6562 5.11328 21.6562 11ZM15.4859 9.7582L12.375 13.0023V5.15625C12.375 4.58477 11.9152 4.125 11.3438 4.125H10.6562C10.0848 4.125 9.625 4.58477 9.625 5.15625V13.0023L6.51406 9.7582C6.11445 9.34141 5.44844 9.33281 5.04023 9.74102L4.57188 10.2137C4.16797 10.6176 4.16797 11.2707 4.57188 11.6703L10.2695 17.3723C10.6734 17.7762 11.3266 17.7762 11.7262 17.3723L17.4281 11.6703C17.832 11.2664 17.832 10.6133 17.4281 10.2137L16.9598 9.74102C16.5516 9.33281 15.8855 9.34141 15.4859 9.7582Z" fill="#008000"/>
</svg>
