<svg width="22" height="22" viewBox="0 0 22 22" fill="none" xmlns="http://www.w3.org/2000/svg">
<path d="M0.34375 11C0.34375 5.11328 5.11328 0.34375 11 0.34375C16.8867 0.34375 21.6562 5.11328 21.6562 11C21.6562 16.8867 16.8867 21.6562 11 21.6562C5.11328 21.6562 0.34375 16.8867 0.34375 11ZM6.51406 12.2418L9.625 8.99766V16.8438C9.625 17.4152 10.0848 17.875 10.6562 17.875H11.3438C11.9152 17.875 12.375 17.4152 12.375 16.8438V8.99766L15.4859 12.2418C15.8855 12.6586 16.5516 12.6672 16.9598 12.259L17.4281 11.7863C17.832 11.3824 17.832 10.7293 17.4281 10.3297L11.7305 4.62773C11.3266 4.22383 10.6734 4.22383 10.2738 4.62773L4.56758 10.3297C4.16367 10.7336 4.16367 11.3867 4.56758 11.7863L5.03594 12.259C5.44844 12.6672 6.11445 12.6586 6.51406 12.2418Z" fill="#CC3525"/>
</svg>
